<svg xmlns="http://www.w3.org/2000/svg" xmlns:xlink="http://www.w3.org/1999/xlink" version="1.1" id="Layer_1" x="0px" y="0px" viewBox="0 0 512.001 512.001" style="enable-background:new 0 0 512.001 512.001;" xml:space="preserve">
  <g>
  	<path style="fill:#BF256B;" d="M66.544,455.461v-35.502c20.009,0,36.287-16.279,36.287-36.286V307.88h35.502v75.794   C138.333,423.258,106.13,455.461,66.544,455.461z"/>
  	<path style="fill:#BF256B;" d="M167.603,455.461v-35.502c20.008,0,36.286-16.279,36.286-36.286V307.88h35.502v75.794   C239.391,423.258,207.188,455.461,167.603,455.461z"/>
  	<path style="fill:#BF256B;" d="M384.303,195.601l-20.849-28.734l48.282-35.033c15.47-11.223,34.446-15.745,53.425-12.726   c18.979,3.019,35.614,13.202,46.84,28.673l-28.735,20.849c-5.657-7.797-14.068-12.933-23.682-14.463   c-9.614-1.53-19.202,0.746-26.998,6.402L384.303,195.601z"/>
  </g>
  <g>
  	<path style="fill:#FF318F;" d="M184.748,230.261c-19.908-14.601-46.185-22.641-73.99-22.641s-54.082,8.04-73.99,22.641   c-21.013,15.41-32.586,36.245-32.586,58.67c0,22.425,11.572,43.261,32.585,58.67c19.908,14.601,46.185,22.641,73.99,22.641   s54.082-8.04,73.99-22.641c21.012-15.409,32.585-36.245,32.585-58.67C217.332,266.506,205.76,245.671,184.748,230.261z"/>
  	<path style="fill:#FF318F;" d="M249.713,220.252c-30.904,0-56.046,25.142-56.046,56.046s25.142,56.046,56.046,56.046   c30.903,0,56.045-25.142,56.045-56.046S280.616,220.252,249.713,220.252z"/>
  </g>
  <path style="fill:#BF256B;" d="M311.675,383.673V270.782c0,0-32.922-50.528-61.962-50.528v112.094  c9.564,0,18.574-2.414,26.461-6.655v57.982c0,39.584,32.205,71.788,71.789,71.788v-35.502  C327.954,419.959,311.675,403.681,311.675,383.673z"/>
  <g>
  	<path style="fill:#FF318F;" d="M428.917,249.952c0,0-78.172,33.664-107.925,23.648c-29.755-10.016-45.755-42.256-35.738-72.01   s42.255-45.755,72.01-35.738S428.917,249.952,428.917,249.952z"/>
  	<path style="fill:#FF318F;" d="M334.428,287.188c-6.427,0-12.281-0.714-17.211-2.373c-17.385-5.852-31.452-18.125-39.608-34.558   c-8.156-16.433-9.423-35.057-3.571-52.442c5.852-17.386,18.125-31.452,34.558-39.608c16.433-8.156,35.057-9.424,52.442-3.571   c33.092,11.14,73.662,81.503,78.179,89.49l6.492,11.479l-12.112,5.215C426.427,263.908,371.138,287.188,334.428,287.188z    M339.086,174.692c-6.848,0-13.655,1.581-19.968,4.715c-10.77,5.345-18.812,14.564-22.649,25.959   c-3.837,11.395-3.005,23.6,2.341,34.37c5.345,10.77,14.564,18.812,25.959,22.649c16.089,5.414,57.584-6.827,86.979-18.21   c-16.54-26.849-42.194-61.699-58.258-67.108C348.773,175.48,343.919,174.692,339.086,174.692z"/>
  </g>
</svg>
