<!-- <svg id="Layer_1" data-name="Layer 1" xmlns="http://www.w3.org/2000/svg" viewBox="0 0 841.89 425.28">
  <defs>
    <style>
      svg {
        filter: hue-rotate(90deg);
      }
      .cls-1{
        fill:#aa4137;
      }
      .cls-2{
        fill:#ea9939;
      }
    </style>
  </defs>
  <title>toscalogo_color</title>
  <path class="cls-1" d="M627.67,180.6a120.22,120.22,0,0,1,43.17-25.13c16.28-5.49,31.91-7.19,46.87-7.19q41.88,0,66.82,19.7A57.53,57.53,0,0,1,796,180.23V48H542.15V259Z"/>
  <polygon class="cls-1" points="95.75 48.22 95.75 47.96 45.89 47.96 45.89 148.57 95.75 148.57 95.75 48.22"/>
  <path class="cls-1" d="M125.67,148.57H281.91q26.41,0,48.61,9a114.28,114.28,0,0,1,38.4,25.18,111.19,111.19,0,0,1,9.82,11.44,50.92,50.92,0,0,1,3.82-9,64.26,64.26,0,0,1,18.2-20.7,78.87,78.87,0,0,1,25.18-12.21,102.94,102.94,0,0,1,28.42-4q28.42,0,49.13,10.47a48.64,48.64,0,0,1,8.75,5.76V48H125.67V148.57Z"/>
  <path class="cls-2" d="M378.75,345.32a107.41,107.41,0,0,1-38.17,32h62.78C391.81,370.34,382.4,359.87,378.75,345.32Z"/>
  <path class="cls-2" d="M635.45,365.47h0L542.15,263v56l0,.05c0,.11,0,.21,0,.32q0,17.94-6.74,31.16A64.36,64.36,0,0,1,517,372.68a79.42,79.42,0,0,1-6.82,4.64H649.59c-1.24-.78-2.5-1.54-3.69-2.39A62.55,62.55,0,0,1,635.45,365.47Z"/>
  <path class="cls-2" d="M169.7,318.37q-9-22.19-9-48.62t9-48.62a116.3,116.3,0,0,1,24.94-38.4,104.39,104.39,0,0,1,7.93-7.23h-76.9V331.29q0,15.46,8.48,23.94c5.65,5.66,13.46,8.77,23.43,8.77h45a104.25,104.25,0,0,1-7.92-7.23A116.09,116.09,0,0,1,169.7,318.37Z"/>
  <path class="cls-2" d="M348.72,203.18A87.93,87.93,0,0,0,319.81,183q-17-7.48-37.9-7.47T244,183a87.77,87.77,0,0,0-28.92,20.2,85.31,85.31,0,0,0-18.2,29.92,110.75,110.75,0,0,0,0,73.3,85.26,85.26,0,0,0,18.2,29.93A87.89,87.89,0,0,0,244,356.52q17,7.47,37.9,7.48t37.9-7.48a88.05,88.05,0,0,0,28.91-20.19,85.58,85.58,0,0,0,18.21-29.93,110.92,110.92,0,0,0,0-73.3A85.63,85.63,0,0,0,348.72,203.18Z"/>
  <path class="cls-2" d="M99,354.48a79.45,79.45,0,0,1-3.25-23.19V175.5H45.89V309.77a67.54,67.54,0,0,0,67.54,67.55h0a41.19,41.19,0,0,1-4.21-4.14A49.71,49.71,0,0,1,99,354.48Z"/>
  <path class="cls-2" d="M713,271.45a128.4,128.4,0,0,0-31.91,8.48q-14.2,6-22.69,16t-8.48,24.93a36.7,36.7,0,0,0,4.73,18.69A41.51,41.51,0,0,0,666.85,353a57.24,57.24,0,0,0,16.7,8,65.22,65.22,0,0,0,18.7,2.74q23.94,0,39.4-7t24.68-18.2a63.62,63.62,0,0,0,12.72-25.44,120.09,120.09,0,0,0,3.48-28.67V269H749.62A262.81,262.81,0,0,0,713,271.45Z"/>
  <path class="cls-2" d="M476.81,284.91a303.81,303.81,0,0,0-32.91-7.72,141.27,141.27,0,0,1-32.92-10,78.92,78.92,0,0,1-8.2-4.36c.11,2.29.3,4.55.3,6.9A133.4,133.4,0,0,1,398,307c-7.54,24,10.15,40.46,22.43,46.94a82.32,82.32,0,0,0,38.9,9.72,62.51,62.51,0,0,0,18.95-3,58.11,58.11,0,0,0,17-8.47A46.14,46.14,0,0,0,507.47,339a33.16,33.16,0,0,0,4.74-17.71q0-15.94-10.22-23.93A76.17,76.17,0,0,0,476.81,284.91Z"/>
  <path class="cls-2" d="M764.08,188.17q-18.44-12.94-46.37-13c-26.6,0-52.83,10.46-77.43,32.26L581.05,260l41.17,43.59c2.13-9,5.73-16.85,11.22-23.14a83.8,83.8,0,0,1,33.16-23.19,157.29,157.29,0,0,1,41.89-10Q730.66,245,747.63,245h34.9v-14Q782.53,201.16,764.08,188.17Z"/>
  <path class="cls-2" d="M488,181.66c-9.33-3.87-16-6.45-33.64-6.45a60.78,60.78,0,0,0-16.7,2.49,59,59,0,0,0-15.71,7,40.61,40.61,0,0,0-11.71,11.47,27.68,27.68,0,0,0-4.74,15.95q0,15.48,10.22,23t25.18,11.72A306.07,306.07,0,0,0,473.81,254a133,133,0,0,1,32.92,9.72c1.91.86,3.71,1.86,5.51,2.87V210.9C512.24,195.71,494.06,184.18,488,181.66Z"/>
</svg> -->

<svg xmlns="http://www.w3.org/2000/svg" xmlns:xlink="http://www.w3.org/1999/xlink" version="1.1" id="Layer_1" x="0px" y="0px" viewBox="0 0 512.001 512.001" style="enable-background:new 0 0 512.001 512.001;" xml:space="preserve">
  <defs>
    <style>
      <!-- svg {
        filter: hue-rotate(90deg);
      } -->
    </style>
  </defs>
  <title>MiniTweeter</title>
  <polygon points="401.373,139.385 441.037,98.224 441.786,138.636 479.379,153.488 426.934,176.228 "/>
  <path style="fill:#6FC8F1;" d="M160.009,52.59l-13.256,17.525c-32.715,43.246-19.924,97.245-13.002,118.263  c-3.868,6.493-8.88,16.466-12.06,28.73c-7.653,29.508-1.015,57.393,19.198,80.641c15.766,18.134,37.041,29.085,59.905,30.839  c2.236,0.172,4.479,0.257,6.73,0.257c21.694,0,43.935-7.936,64.736-23.17c16.387-12.004,29.08-28.255,36.705-46.997l3.651-8.973  L160.009,52.59z"/>
  <path style="fill:#4BBAED;" d="M314.885,251.975l-8.973,3.651c-18.745,7.626-34.997,20.32-46.999,36.706  C242.1,315.289,234.178,340,236.002,363.795c1.752,22.864,12.705,44.138,30.84,59.906c16.98,14.764,36.434,22.286,57.19,22.285  c7.659,0,15.497-1.025,23.451-3.087c12.265-3.182,22.237-8.193,28.73-12.06c21.018,6.925,75.017,19.714,118.263-13.002  l17.525-13.256L314.885,251.975z"/>
  <path style="fill:#DBF1FB;" d="M369.229,216.807l-3.111-5.049l-69.577-24.646l-7.407,6.471  c-0.899,0.785-90.51,78.762-150.271,103.665c-32.553,12.625-71.312,18.284-71.694,18.338L0,325.181l109.646,39.277l-56.101,94.953  l50.57-24.875c0.752-0.371,76.222-37.034,157.317-37.034c36.819,0,68.482-12.122,91.564-35.054  c21.795-21.652,33.798-51.313,33.798-83.52C386.794,256.938,380.72,235.456,369.229,216.807z"/>
  <path style="fill:#B7E4F8;" d="M365.133,111.9c-49.351,0-89.501,40.149-89.501,89.5c0,1.179,0.044,2.349,0.09,3.517  c-27.367,22.699-90.927,73.189-136.861,92.33c-32.553,12.625-71.312,18.284-71.694,18.338L0,325.181l109.646,39.277l-56.101,94.953  l50.57-24.875c0.508-0.251,35.058-17.033,82.401-27.917c44.762-21.151,93.69-51.845,116.042-91.617  c10.371-18.455,11.568-32.852,11.226-40.365c14.548,10.232,32.253,16.263,51.35,16.263c49.35,0,89.501-40.149,89.501-89.501  C454.634,152.05,414.484,111.9,365.133,111.9z"/>
  <circle cx="384.562" cy="193.045" r="16.816"/>
  <path style="fill:#6FC8F1;" d="M415.232,127.272c-14.306-9.699-31.552-15.373-50.098-15.373c-26.277,0-49.944,11.385-66.332,29.48  c13.915,11.925,31.981,19.144,51.744,19.144C377.207,160.524,400.792,147.398,415.232,127.272z"/>
</svg>
